# xmcd
#
# Track frame offsets:
#  187
#  18000
#  32650
#  55825
#  77412
#  96725
#  113237
#  134300
#  159100
#  180300
#  205600
#  222250
#  242775
#  258450
#  281775
#  299625
#  320450
#
# Disc length: 4530 seconds
#
# Revision: 1
# Processed by: cddbd v1.5.1PL2 Copyright (c) Steve Scherf et al.
# Submitted via: Collectorz.com_Music_Collector 6.9
#
DISCID=ee11b011
DTITLE=Cocker, Joe - Best Blues Ballads
DYEAR=1995
DGENRE=Blues
TTITLE0=Summer in the City
TTITLE1=One Night of Sin
TTITLE2=Unchain My Heart
TTITLE3=Too Cool
TTITLE4=You Can Leave Your Hat On
TTITLE5=Fever
TTITLE6=How That the Magic Has Gone
TTITLE7=Please No More
TTITLE8=Have a Little faith on Me
TTITLE9=Five Women
TTITLE10=Hold on (I Fell Our Love Is Changing)
TTITLE11=Angeline
TTITLE12=Night Calls
TTITLE13=Let the healing Begin
TTITLE14=Civilized Man
TTITLE15=Soul Time
TTITLE16=When a Woman Cries
EXTD=
EXTT0=
EXTT1=
EXTT2=
EXTT3=
EXTT4=
EXTT5=
EXTT6=
EXTT7=
EXTT8=
EXTT9=
EXTT10=
EXTT11=
EXTT12=
EXTT13=
EXTT14=
EXTT15=
EXTT16=
PLAYORDER=
